<svg width="174" height="40" viewBox="0 0 174 40" fill="none" xmlns="http://www.w3.org/2000/svg">
<path d="M25.8639 31.5998L21.3709 36.0929C21.3735 36.0902 21.3761 36.0875 21.3787 36.0849L25.8654 31.5982C25.8649 31.5988 25.8644 31.5993 25.8639 31.5998Z" fill="white"/>
<path d="M26.9671 28.2022C26.9694 28.3327 26.9685 28.4612 26.9639 28.5877L22.5864 32.9653C22.5909 32.8388 22.5919 32.7103 22.5896 32.5797L26.9671 28.2022Z" fill="white"/>
<path d="M26.7654 26.492C26.8235 26.771 26.8693 27.0442 26.9025 27.3109L22.525 31.6884C22.4918 31.4217 22.4459 31.1485 22.3879 30.8695L26.7654 26.492Z" fill="white"/>
<path d="M26.2282 24.6393C26.2694 24.7516 26.309 24.8634 26.3469 24.9747C26.4775 25.3588 26.5875 25.7351 26.6772 26.1022L22.2997 30.4797C22.21 30.1126 22.0999 29.7363 21.9694 29.3523C21.9315 29.2409 21.8919 29.1291 21.8507 29.0168L26.2282 24.6393Z" fill="white"/>
<path d="M20.4512 16.057C21.8267 17.4325 23.0554 18.9281 24.067 20.4582C24.9689 21.8224 25.6824 23.1904 26.1764 24.4999L21.7989 28.8774C21.3049 27.5679 20.5914 26.1999 19.6895 24.8357C18.7411 23.4012 17.4329 21.8617 16.1608 20.5584L11.6678 16.0654L16.0652 11.6679L20.4512 16.057Z" fill="white"/>
<path d="M5.16937 8.41551C5.66334 9.72504 6.3769 11.0931 7.27884 12.4574C8.2272 13.8918 9.53539 15.4313 10.8075 16.7346L15.3005 21.2277L10.9031 25.6251L6.51715 21.2361C5.1416 19.8605 3.91292 18.365 2.90134 16.8349C1.9994 15.4706 1.28584 14.1025 0.791872 12.793L5.16937 8.41551Z" fill="white"/>
<path d="M4.66857 6.8132C4.75825 7.18031 4.86831 7.55668 4.99891 7.9408C5.03676 8.05212 5.07642 8.16387 5.11756 8.27613L0.740059 12.6536C0.698922 12.5414 0.659254 12.4296 0.621404 12.3183C0.490804 11.9342 0.380746 11.5578 0.291064 11.1907L4.66857 6.8132Z" fill="white"/>
<path d="M4.4433 5.60452C4.47648 5.87123 4.5223 6.14441 4.58034 6.42344L0.202843 10.8009C0.144797 10.5219 0.0989821 10.2487 0.0657966 9.98202L4.4433 5.60452Z" fill="white"/>
<path d="M4.38192 4.32755C4.37738 4.45405 4.37645 4.5826 4.37874 4.71311L0.00119446 9.09066C-0.00110165 8.96013 -0.000118786 8.83157 0.00441523 8.70506L4.38192 4.32755Z" fill="white"/>
<path d="M25.7683 31.6955C25.0908 32.373 24.1246 32.7914 22.9722 32.8909C21.8199 32.9904 20.4794 32.7875 19.0277 32.2939C17.576 31.8003 16.0412 31.0256 14.5111 30.014C13.0766 29.0657 11.5372 27.7575 10.2338 26.4854L5.7408 21.9923L1.34337 26.3898L5.73241 30.7757C7.10796 32.1513 8.60347 33.38 10.1336 34.3916C11.6637 35.4031 13.1985 36.1779 14.6502 36.6715C16.1019 37.1651 17.4424 37.368 18.5947 37.2684C19.711 37.172 20.603 36.828 21.2753 36.1885L25.7683 31.6955Z" fill="white"/>
<path d="M1.20002 5.59758C1.87754 4.92006 2.84375 4.50167 3.9961 4.40213C5.14845 4.30259 6.48888 4.5055 7.94062 4.99909C9.39235 5.49269 10.9271 6.26743 12.4572 7.279C13.8917 8.22736 15.4311 9.53554 16.7345 10.8077L21.2275 15.3007L25.6249 10.9033L21.2359 6.5173C19.8604 5.14175 18.3648 3.91306 16.8347 2.90149C15.3046 1.88992 13.7699 1.11518 12.3181 0.621583C10.8664 0.127989 9.52596 -0.0749159 8.37361 0.0246222C7.25728 0.12105 6.36535 0.46504 5.69305 1.10455L1.20002 5.59758Z" fill="white"/>
<path d="M35.7601 24.8313H39.4103C39.4103 26.8592 40.9515 28.0759 43.4662 28.0759C46.143 28.0759 47.6842 26.9808 47.6842 25.1557C47.6842 23.8173 47.0353 23.0062 44.9668 22.4789L41.4788 21.6677C37.9502 20.816 36.2874 19.072 36.2874 16.1518C36.2874 12.5016 39.3698 10.1898 43.7501 10.1898C48.0898 10.1898 50.9288 12.6233 51.01 16.3952H47.3597C47.2786 14.4078 45.9402 13.1505 43.6284 13.1505C41.2355 13.1505 39.897 14.205 39.897 16.0302C39.897 17.3686 40.8704 18.2609 42.8172 18.7476L46.3052 19.5993C49.6715 20.4104 51.3344 21.9516 51.3344 24.9124C51.3344 28.6843 48.0898 31.0772 43.385 31.0772C38.7209 31.0772 35.7601 28.6032 35.7601 24.8313Z" fill="white"/>
<path d="M59.7398 31.0772C55.4812 31.0772 52.9666 28.6843 52.9666 25.0746C52.9666 21.4244 55.684 19.1531 60.3481 18.7881L66.5941 18.3014V17.7336C66.5941 14.4078 64.6068 13.2316 61.9299 13.2316C58.7258 13.2316 56.9007 14.6512 56.9007 17.0441H53.5749C53.5749 12.9072 56.9818 10.1898 62.0921 10.1898C66.9997 10.1898 70.3254 12.7855 70.3254 18.1392V30.5905H67.0808L66.6752 27.3864C65.6613 29.6577 62.9439 31.0772 59.7398 31.0772ZM60.8348 28.1165C64.4445 28.1165 66.6347 25.7641 66.6347 22.0328V20.9782L61.5649 21.3838C58.1986 21.7083 56.8196 23.0062 56.8196 24.9529C56.8196 27.062 58.3608 28.1165 60.8348 28.1165Z" fill="white"/>
<path d="M72.7257 20.1671C72.7257 14.5701 76.3353 10.1898 82.0946 10.1898C85.2987 10.1898 87.7727 11.6499 89.03 14.1239L89.3139 10.7576H92.7208V29.7794C92.7208 36.0253 88.8678 40 82.7841 40C77.3898 40 73.6991 36.9581 72.969 31.9289H76.7815C77.2682 34.8491 79.4583 36.5526 82.7841 36.5526C86.5154 36.5526 88.9489 34.1191 88.9489 30.3472V26.3725C87.651 28.6843 85.0553 30.0633 81.9324 30.0633C76.2948 30.0633 72.7257 25.7235 72.7257 20.1671ZM76.5381 20.086C76.5381 23.8173 78.8499 26.7375 82.5813 26.7375C86.4343 26.7375 88.7867 23.9795 88.7867 20.086C88.7867 16.2735 86.5154 13.5156 82.6218 13.5156C78.8094 13.5156 76.5381 16.4357 76.5381 20.086Z" fill="white"/>
<path d="M95.3026 20.6538C95.3026 14.5295 99.6829 10.2303 105.645 10.2303C111.566 10.2303 115.947 14.5295 115.947 20.6538C115.947 26.7781 111.566 31.0772 105.645 31.0772C99.6829 31.0772 95.3026 26.7781 95.3026 20.6538ZM99.1556 20.6538C99.1556 24.7907 101.792 27.6703 105.645 27.6703C109.457 27.6703 112.134 24.7907 112.134 20.6538C112.134 16.5169 109.457 13.6372 105.645 13.6372C101.792 13.6372 99.1556 16.5169 99.1556 20.6538Z" fill="white"/>
<path d="M122.438 30.5905H118.626V0.739747H122.438V30.5905Z" fill="white"/>
<path d="M128.294 6.05286C126.915 6.05286 125.779 4.91723 125.779 3.53826C125.779 2.11872 126.915 1.02366 128.294 1.02366C129.673 1.02366 130.808 2.11872 130.808 3.53826C130.808 4.91723 129.673 6.05286 128.294 6.05286ZM126.428 30.5905V10.7576H130.241V30.5905H126.428Z" fill="white"/>
<path d="M137.966 30.5905H134.153V10.7576H137.601L138.006 13.7995C139.263 11.5282 141.778 10.1898 144.577 10.1898C149.809 10.1898 152.201 13.3939 152.201 18.4636V30.5905H148.389V19.3154C148.389 15.3001 146.523 13.6778 143.603 13.6778C140.034 13.6778 137.966 16.2329 137.966 20.086V30.5905Z" fill="white"/>
<path d="M159.753 30.5905H155.941V0.739747H159.753V20.086L168.554 10.7576H173.34L165.756 18.6664L173.3 30.5905H168.919L163.12 21.4244L159.753 24.9529V30.5905Z" fill="white"/>
</svg>
