<svg width="40" height="40" viewBox="0 0 40 40" fill="none" xmlns="http://www.w3.org/2000/svg">
<rect width="40" height="40" rx="20" fill="#292B34"/>
<g clip-path="url(#clip0_278_4170)">
<path fill-rule="evenodd" clip-rule="evenodd" d="M29.5988 11.9141C30.6566 12.1973 31.488 13.0285 31.7711 14.0863C32.2828 16.0017 32.2848 20.0003 32.2848 20.0003C32.2848 20.0003 32.2848 23.9989 31.7711 25.9143C31.488 26.9721 30.6566 27.8033 29.5988 28.0864C27.6836 28.6002 19.9998 28.6002 19.9998 28.6002C19.9998 28.6002 12.3162 28.6002 10.4008 28.0864C9.343 27.8033 8.51173 26.9721 8.22857 25.9143C7.71484 23.9989 7.71484 20.0003 7.71484 20.0003C7.71484 20.0003 7.71484 16.0017 8.22857 14.0863C8.51173 13.0285 9.343 12.1973 10.4008 11.9141C12.3162 11.4004 19.9998 11.4004 19.9998 11.4004C19.9998 11.4004 27.6836 11.4004 29.5988 11.9141ZM23.9237 20.0006L17.5405 23.6857V16.3155L23.9237 20.0006Z" fill="white"/>
</g>
<defs>
<clipPath id="clip0_278_4170">
<rect width="28" height="28" fill="white" transform="translate(6 6)"/>
</clipPath>
</defs>
</svg>
