<svg width="40" height="40" viewBox="0 0 40 40" fill="none" xmlns="http://www.w3.org/2000/svg">
<rect width="40" height="40" rx="20" fill="#292B34"/>
<path d="M23.2 20C23.2 20.6329 23.0123 21.2516 22.6607 21.7778C22.3091 22.3041 21.8093 22.7142 21.2246 22.9564C20.6399 23.1986 19.9965 23.262 19.3757 23.1385C18.755 23.015 18.1848 22.7103 17.7373 22.2627C17.2897 21.8152 16.985 21.245 16.8615 20.6243C16.738 20.0035 16.8014 19.3601 17.0436 18.7754C17.2858 18.1907 17.6959 17.6909 18.2222 17.3393C18.7484 16.9877 19.3671 16.8 20 16.8C20.8484 16.801 21.6618 17.1384 22.2617 17.7383C22.8616 18.3382 23.199 19.1516 23.2 20ZM30 15.6V24.4C29.9983 25.8847 29.4078 27.3081 28.3579 28.3579C27.3081 29.4078 25.8847 29.9983 24.4 30H15.6C14.1153 29.9983 12.6919 29.4078 11.6421 28.3579C10.5922 27.3081 10.0017 25.8847 10 24.4V15.6C10.0017 14.1153 10.5922 12.6919 11.6421 11.6421C12.6919 10.5922 14.1153 10.0017 15.6 10H24.4C25.8847 10.0017 27.3081 10.5922 28.3579 11.6421C29.4078 12.6919 29.9983 14.1153 30 15.6ZM24.8 20C24.8 19.0506 24.5185 18.1226 23.9911 17.3333C23.4636 16.5439 22.714 15.9287 21.8369 15.5654C20.9598 15.2021 19.9947 15.107 19.0636 15.2922C18.1325 15.4774 17.2772 15.9346 16.6059 16.6059C15.9346 17.2772 15.4774 18.1325 15.2922 19.0636C15.107 19.9947 15.2021 20.9598 15.5654 21.8369C15.9287 22.714 16.5439 23.4636 17.3333 23.9911C18.1226 24.5185 19.0506 24.8 20 24.8C21.2726 24.7986 22.4927 24.2924 23.3925 23.3925C24.2924 22.4927 24.7986 21.2726 24.8 20ZM26.4 14.8C26.4 14.5627 26.3296 14.3307 26.1978 14.1333C26.0659 13.936 25.8785 13.7822 25.6592 13.6913C25.4399 13.6005 25.1987 13.5768 24.9659 13.6231C24.7331 13.6694 24.5193 13.7836 24.3515 13.9515C24.1837 14.1193 24.0694 14.3331 24.0231 14.5659C23.9768 14.7987 24.0005 15.0399 24.0913 15.2592C24.1822 15.4785 24.336 15.6659 24.5333 15.7978C24.7307 15.9296 24.9627 16 25.2 16C25.5183 16 25.8235 15.8736 26.0485 15.6485C26.2736 15.4235 26.4 15.1183 26.4 14.8Z" fill="white"/>
</svg>
