<svg width="40" height="40" viewBox="0 0 40 40" fill="none" xmlns="http://www.w3.org/2000/svg">
<rect width="40" height="40" rx="20" fill="#292B34"/>
<g clip-path="url(#clip0_278_4172)">
<path d="M12.9501 20.4191C13.2261 20.4191 13.4629 20.3213 13.6607 20.1235C13.8584 19.9236 13.9562 19.6868 13.9562 19.4065C13.9562 19.1262 13.8584 18.885 13.6607 18.6894C13.4629 18.4917 13.2239 18.3939 12.9501 18.3939C12.6763 18.3939 12.4438 18.4917 12.2505 18.6894C12.0571 18.8872 11.9615 19.1262 11.9615 19.4065C11.9615 19.6868 12.0571 19.9236 12.2505 20.1235C12.4417 20.3213 12.6742 20.4191 12.9501 20.4191Z" fill="white"/>
<path d="M21.4028 20.4104C21.6809 20.4104 21.9156 20.3104 22.1133 20.1149C22.311 19.915 22.411 19.6738 22.411 19.3956C22.411 19.1175 22.311 18.8763 22.1133 18.6807C21.9156 18.4808 21.6744 18.3852 21.4028 18.3852C21.1312 18.3852 20.8965 18.483 20.7031 18.6807C20.5097 18.8763 20.4119 19.1131 20.4119 19.3956C20.4119 19.6781 20.5097 19.915 20.7031 20.1149C20.8987 20.3104 21.1246 20.4104 21.4028 20.4104Z" fill="white"/>
<path d="M27.752 20.1235C27.5542 20.3213 27.3196 20.4191 27.0414 20.4191C26.7633 20.4191 26.5373 20.3213 26.3418 20.1235C26.1484 19.9236 26.0506 19.6868 26.0506 19.4065C26.0506 19.1262 26.1484 18.8872 26.3418 18.6894C26.5352 18.4917 26.7677 18.3939 27.0414 18.3939C27.3152 18.3939 27.5542 18.4917 27.752 18.6894C27.9497 18.885 28.0475 19.1262 28.0475 19.4065C28.0475 19.6868 27.9497 19.9236 27.752 20.1235Z" fill="white"/>
<path fill-rule="evenodd" clip-rule="evenodd" d="M29.549 27.0899C31.0157 27.0899 32.213 25.8883 32.213 24.4259H32.2152V13.62C32.2152 12.1555 31.0179 10.9561 29.5512 10.9561H10.447C8.98243 10.9561 7.78516 12.1555 7.78516 13.62V24.4259C7.78516 25.8904 8.98243 27.0899 10.447 27.0899H17.95C17.95 27.0899 19.3972 31.0446 19.9252 31.0446C20.4532 31.0446 22.0199 27.0899 22.0199 27.0899H29.549ZM15.7902 15.052V16.6013C15.7902 16.6013 16.4964 16.7186 16.4964 17.6117V21.4816H17.9609V17.6595C17.8392 15.178 15.7902 15.052 15.7902 15.052ZM11.9941 17.5726C12.383 17.2423 12.898 17.1293 13.5064 17.1097H13.5042C14.0235 17.0923 14.5624 17.4139 14.8884 17.792C15.2121 18.1636 15.4468 18.7481 15.4468 19.3978C15.4468 20.104 15.2599 20.5082 14.8818 20.934C14.5038 21.3578 13.9236 21.5381 13.2913 21.5381C12.722 21.5381 12.3026 21.3665 11.9941 21.1296H11.9745V21.4338H10.5404V15.1824H11.9745V17.5726H11.9941ZM22.361 17.2618C22.6631 17.3792 22.9303 17.5443 23.1628 17.7616V17.7594C23.3975 17.9789 23.5757 18.2309 23.6995 18.5113C23.8212 18.7894 23.8842 19.0892 23.8842 19.4021C23.8842 19.715 23.8212 20.0127 23.6995 20.293C23.5757 20.5733 23.3975 20.8232 23.1628 21.0427C22.9303 21.2622 22.6631 21.4295 22.361 21.5446C22.0612 21.6598 21.7331 21.7185 21.4049 21.7185C21.0768 21.7185 20.7639 21.6598 20.4662 21.5446C20.1664 21.4273 19.8991 21.26 19.6623 21.0427C19.4211 20.8145 19.2407 20.5625 19.1147 20.2843C18.9908 20.0106 18.93 19.715 18.93 19.4043C18.93 19.0936 18.9908 18.8002 19.1147 18.5221C19.2386 18.244 19.4211 17.9919 19.6623 17.7616C19.8991 17.5421 20.1642 17.377 20.4662 17.2618C20.7618 17.1467 21.0681 17.088 21.4049 17.088C21.7417 17.088 22.0612 17.1467 22.361 17.2618ZM28.0084 17.4748H28.0236V17.1336H29.449V20.9188C29.449 22.0161 29.2404 22.6854 28.7515 23.1504C28.1714 23.7045 27.3391 23.7436 26.6416 23.6437V22.5072C27.2261 22.5681 28.0258 22.1835 28.0258 21.4273V21.1339H28.0084C27.6824 21.5859 27.2044 21.751 26.5699 21.751C25.9832 21.751 25.4704 21.5316 25.1249 21.1274C24.7794 20.7233 24.6078 20.18 24.6078 19.4999C24.6078 18.7351 24.8012 18.131 25.1858 17.6812C25.5704 17.2357 26.118 17.025 26.7481 17.025C27.3087 17.025 27.6629 17.1619 28.0084 17.4748Z" fill="white"/>
</g>
<defs>
<clipPath id="clip0_278_4172">
<rect width="28" height="28" fill="white" transform="translate(6 6)"/>
</clipPath>
</defs>
</svg>
