<svg width="20" height="20" viewBox="0 0 20 20" fill="none" xmlns="http://www.w3.org/2000/svg">
<mask id="mask0_1263_6732" style="mask-type:alpha" maskUnits="userSpaceOnUse" x="0" y="0" width="20" height="20">
<rect width="20" height="20" fill="#D9D9D9"/>
</mask>
<g mask="url(#mask0_1263_6732)">
<path d="M4.55898 15.6247V14.0698H5.80288L7.33832 8.95813C7.44198 8.62124 7.6331 8.35238 7.91168 8.15154C8.19027 7.9507 8.498 7.85028 8.83489 7.85028H11.1672C11.5041 7.85028 11.8118 7.9507 12.0904 8.15154C12.369 8.35238 12.5601 8.62124 12.6638 8.95813L14.1992 14.0698H15.4431V15.6247H4.55898ZM9.22361 6.2954V2.4082H10.7785V6.2954H9.22361ZM13.8494 8.21956L12.7415 7.11171L15.5014 4.37124L16.5899 5.45965L13.8494 8.21956ZM14.6657 11.7375V10.1826H18.5529V11.7375H14.6657ZM6.15273 8.21956L3.41225 5.45965L4.50067 4.37124L7.26058 7.11171L6.15273 8.21956ZM1.44922 11.7375V10.1826H5.33642V11.7375H1.44922Z" fill="white"/>
</g>
</svg>
