<svg width="20" height="20" viewBox="0 0 20 20" fill="none" xmlns="http://www.w3.org/2000/svg">
<mask id="mask0_1263_6736" style="mask-type:alpha" maskUnits="userSpaceOnUse" x="0" y="0" width="20" height="20">
<rect width="20" height="20" fill="#D9D9D9"/>
</mask>
<g mask="url(#mask0_1263_6736)">
<path d="M8.85207 13.1832H11.1413V10.5124H13.8121V8.22317H11.1413V5.55235H8.85207V8.22317H6.18126V10.5124H8.85207V13.1832ZM4.65508 16.2356C4.23538 16.2356 3.8761 16.0862 3.57722 15.7873C3.27834 15.4884 3.12891 15.1291 3.12891 14.7094V4.02618C3.12891 3.60648 3.27834 3.24719 3.57722 2.94831C3.8761 2.64944 4.23538 2.5 4.65508 2.5H15.3383C15.758 2.5 16.1173 2.64944 16.4162 2.94831C16.7151 3.24719 16.8645 3.60648 16.8645 4.02618V14.7094C16.8645 15.1291 16.7151 15.4884 16.4162 15.7873C16.1173 16.0862 15.758 16.2356 15.3383 16.2356H4.65508Z" fill="white"/>
</g>
</svg>
