<svg width="139" height="32" viewBox="0 0 139 32" fill="none" xmlns="http://www.w3.org/2000/svg">
<path d="M4.47923 0.960406C3.93708 1.50256 3.60228 2.27574 3.52263 3.19786C3.44298 4.11998 3.60535 5.1926 4.00033 6.3543C4.39531 7.51599 5.01526 8.74412 5.82473 9.96853C6.58361 11.1164 7.63044 12.3483 8.6484 13.3912L12.2438 16.9866L8.7249 20.5055L5.21521 16.9933C4.11448 15.8926 3.13127 14.6959 2.3218 13.4715C1.51234 12.2471 0.892378 11.0189 0.497398 9.85723C0.102419 8.69553 -0.0599484 7.62291 0.0197028 6.70079C0.096865 5.80749 0.372129 5.09375 0.883869 4.55578L4.47923 0.960406Z" fill="#2D51FF"/>
<path d="M0.960407 4.47924C1.50256 3.93708 2.27574 3.60228 3.19786 3.52263C4.11998 3.44298 5.1926 3.60535 6.35431 4.00033C7.51599 4.39531 8.74413 5.01526 9.96853 5.82473C11.1164 6.58361 12.3483 7.63044 13.3912 8.6484L16.9866 12.2438L20.5055 8.7249L16.9933 5.21521C15.8926 4.11448 14.6959 3.13127 13.4715 2.3218C12.2471 1.51233 11.0189 0.892378 9.85723 0.497398C8.69553 0.102418 7.62291 -0.0599485 6.70079 0.0197028C5.80749 0.0968653 5.09375 0.37213 4.55578 0.883869L0.960407 4.47924Z" fill="#7F95FF"/>
<path d="M17.1014 28.8819C17.6435 28.3397 17.9783 27.5665 18.058 26.6444C18.1376 25.7223 17.9753 24.6497 17.5803 23.488C17.1853 22.3263 16.5654 21.0982 15.7559 19.8738C14.997 18.7259 13.9502 17.494 12.9322 16.451L9.33686 12.8557L12.8557 9.33681L16.3654 12.849C17.4662 13.9497 18.4494 15.1464 19.2588 16.3708C20.0683 17.5952 20.6882 18.8234 21.0832 19.9851C21.4782 21.1468 21.6406 22.2194 21.5609 23.1415C21.4838 24.0348 21.2085 24.7485 20.6968 25.2865L17.1014 28.8819Z" fill="#2D51FF"/>
<path d="M20.6202 25.3631C20.0781 25.9052 19.3049 26.24 18.3828 26.3197C17.4606 26.3993 16.388 26.2369 15.2263 25.842C14.0646 25.447 12.8365 24.827 11.6121 24.0176C10.4642 23.2587 9.23233 22.2118 8.18939 21.1939L4.59402 17.5985L1.07515 21.1174L4.58731 24.6271C5.68804 25.7278 6.88475 26.711 8.10917 27.5205C9.33358 28.33 10.5617 28.9499 11.7234 29.3449C12.8851 29.7399 13.9577 29.9022 14.8798 29.8226C15.7731 29.7454 16.4869 29.4702 17.0249 28.9584L20.6202 25.3631Z" fill="#7F95FF"/>
<path d="M28.6356 19.8618H31.5565C31.5565 21.4846 32.7898 22.4582 34.802 22.4582C36.944 22.4582 38.1773 21.5819 38.1773 20.1215C38.1773 19.0504 37.6581 18.4014 36.0028 17.9794L33.2117 17.3303C30.3881 16.6488 29.0575 15.2532 29.0575 12.9165C29.0575 9.9955 31.5241 8.14557 35.0292 8.14557C38.5019 8.14557 40.7737 10.0929 40.8386 13.1112H37.9177C37.8528 11.5209 36.7818 10.5148 34.9318 10.5148C33.017 10.5148 31.946 11.3586 31.946 12.8191C31.946 13.8901 32.7249 14.6041 34.2827 14.9936L37.0739 15.6751C39.7676 16.3242 41.0983 17.5575 41.0983 19.9267C41.0983 22.9451 38.5019 24.8599 34.7371 24.8599C31.0048 24.8599 28.6356 22.8801 28.6356 19.8618Z" fill="black"/>
<path d="M47.8243 24.8599C44.4166 24.8599 42.4043 22.9451 42.4043 20.0566C42.4043 17.1356 44.5788 15.3181 48.3112 15.026L53.3092 14.6366V14.1822C53.3092 11.5209 51.7189 10.5797 49.5769 10.5797C47.013 10.5797 45.5525 11.7156 45.5525 13.6305H42.8912C42.8912 10.3201 45.6174 8.14557 49.7067 8.14557C53.6338 8.14557 56.2951 10.2227 56.2951 14.5067V24.4704H53.6987L53.3741 21.9065C52.5628 23.724 50.3883 24.8599 47.8243 24.8599ZM48.7006 22.4907C51.5891 22.4907 53.3417 20.6083 53.3417 17.6224V16.7786L49.2848 17.1031C46.591 17.3628 45.4876 18.4014 45.4876 19.9592C45.4876 21.6469 46.7209 22.4907 48.7006 22.4907Z" fill="black"/>
<path d="M58.2158 16.1295C58.2158 11.6507 61.1043 8.14557 65.7129 8.14557C68.2768 8.14557 70.2566 9.31395 71.2627 11.2937L71.4899 8.59994H74.2161V23.8213C74.2161 28.8194 71.1329 32 66.2646 32C61.9481 32 58.9947 29.5659 58.4105 25.5415H61.4613C61.8507 27.8782 63.6033 29.2413 66.2646 29.2413C69.2505 29.2413 71.1978 27.294 71.1978 24.2757V21.0951C70.1592 22.9451 68.0821 24.0485 65.583 24.0485C61.0718 24.0485 58.2158 20.5758 58.2158 16.1295ZM61.2665 16.0646C61.2665 19.0505 63.1165 21.3872 66.1023 21.3872C69.1856 21.3872 71.0679 19.1803 71.0679 16.0646C71.0679 13.0138 69.2505 10.8069 66.1348 10.8069C63.084 10.8069 61.2665 13.1436 61.2665 16.0646Z" fill="black"/>
<path d="M76.282 16.519C76.282 11.6183 79.7872 8.17802 84.5581 8.17802C89.2965 8.17802 92.8016 11.6183 92.8016 16.519C92.8016 21.4197 89.2965 24.8599 84.5581 24.8599C79.7872 24.8599 76.282 21.4197 76.282 16.519ZM79.3653 16.519C79.3653 19.8294 81.4748 22.1337 84.5581 22.1337C87.6088 22.1337 89.7509 19.8294 89.7509 16.519C89.7509 13.2086 87.6088 10.9042 84.5581 10.9042C81.4748 10.9042 79.3653 13.2086 79.3653 16.519Z" fill="black"/>
<path d="M97.9962 24.4704H94.9454V0.583549H97.9962V24.4704Z" fill="black"/>
<path d="M102.682 4.83516C101.578 4.83516 100.67 3.92642 100.67 2.82295C100.67 1.68702 101.578 0.810735 102.682 0.810735C103.785 0.810735 104.694 1.68702 104.694 2.82295C104.694 3.92642 103.785 4.83516 102.682 4.83516ZM101.189 24.4704V8.59994H104.24V24.4704H101.189Z" fill="black"/>
<path d="M110.421 24.4704H107.371V8.59994H110.129L110.454 11.0341C111.46 9.21658 113.472 8.14557 115.712 8.14557C119.898 8.14557 121.813 10.7095 121.813 14.7664V24.4704H118.762V15.4479C118.762 12.2349 117.269 10.9367 114.933 10.9367C112.077 10.9367 110.421 12.9814 110.421 16.0646V24.4704Z" fill="black"/>
<path d="M127.856 24.4704H124.805V0.583549H127.856V16.0646L134.899 8.59994H138.729L132.659 14.9287L138.696 24.4704H135.191L130.55 17.1356L127.856 19.9592V24.4704Z" fill="black"/>
</svg>
