<svg width="1023" height="276" viewBox="0 0 1023 276" fill="none" xmlns="http://www.w3.org/2000/svg">
<g clip-path="url(#clip0_1408_1873)">
<rect x="556.43" y="43.3438" width="167.644" height="69.0856" transform="rotate(-15 556.43 43.3438)" fill="white" fill-opacity="0.08"/>
<path d="M686.601 99.6914C693.9 99.7698 702.303 100.535 711.811 101.987C721.318 103.44 731.321 105.573 741.819 108.386C752.317 111.199 762.046 114.353 771.006 117.849C779.965 121.344 787.626 124.883 793.986 128.465C800.347 132.047 805.202 135.557 808.552 138.992C811.901 142.427 813.216 145.491 812.495 148.184C812.481 148.238 812.462 148.292 812.446 148.346L812.451 148.348L810.14 156.973C810.136 156.987 810.134 157.001 810.13 157.016C810.126 157.029 810.121 157.043 810.117 157.057L810.085 157.18L810.082 157.179C809.298 159.789 806.644 161.731 802.119 163.005C797.5 164.305 791.541 164.916 784.241 164.838C776.942 164.759 768.538 163.994 759.031 162.542C749.524 161.09 739.521 158.957 729.023 156.145C726.711 155.525 724.436 154.886 722.198 154.233L742.514 189.42C744.138 192.233 744.526 195.221 743.68 198.381C742.833 201.541 741.003 203.933 738.189 205.558L627.016 269.744C624.202 271.368 621.215 271.757 618.055 270.91C614.895 270.063 612.502 268.233 610.878 265.42L575.438 204.036C573.813 201.223 573.425 198.235 574.271 195.075C575.118 191.915 576.948 189.523 579.762 187.898L673.234 133.932C668.621 131.086 664.973 128.288 662.29 125.537C659.009 122.171 657.682 119.163 658.308 116.511L658.303 116.51L660.67 107.678L660.674 107.679C660.687 107.624 660.698 107.568 660.713 107.514C661.434 104.822 664.104 102.825 668.723 101.524C673.341 100.224 679.301 99.613 686.601 99.6914Z" fill="white" fill-opacity="0.08"/>
<path d="M383.096 107.498C386.614 109.997 389.626 113.047 392.134 116.647C394.641 120.248 396.459 124.153 397.587 128.36C400.287 138.437 399.076 147.87 393.954 156.66C388.832 165.45 381.288 171.18 371.322 173.851L346.001 180.635C348.329 182.406 350.496 184.226 352.495 186.101C358.338 191.577 362.588 197.315 365.245 203.313C367.902 209.312 368.479 215.115 366.977 220.724C366.77 221.495 366.525 222.249 366.247 222.987L363.888 231.796C363.759 232.579 363.593 233.36 363.385 234.136C361.882 239.744 358.48 244.482 353.18 248.349C347.879 252.215 341.329 255.059 333.531 256.88C325.733 258.701 316.938 259.441 307.147 259.099C297.357 258.756 287.219 257.181 276.735 254.372C266.252 251.563 256.685 247.858 248.035 243.259C239.385 238.66 232.139 233.623 226.296 228.146C220.453 222.67 216.203 216.932 213.546 210.934C210.892 204.942 210.313 199.145 211.809 193.543V193.542L215.384 180.198C215.391 180.169 215.399 180.139 215.406 180.11C216.909 174.502 220.311 169.765 225.611 165.898C230.912 162.032 237.461 159.188 245.259 157.367C253.057 155.546 261.852 154.806 271.643 155.148C273.424 155.211 275.217 155.314 277.021 155.458C276.689 152.848 276.634 150.207 276.861 147.535C277.233 143.163 278.317 139.015 280.114 135.092L291.825 109.7L360.258 91.3643L383.096 107.498ZM353.209 79.0107L291.753 95.4785L271.344 72.4629L359.376 48.875L353.209 79.0107Z" fill="white" fill-opacity="0.08"/>
</g>
<defs>
<clipPath id="clip0_1408_1873">
<rect width="1023" height="276" fill="white"/>
</clipPath>
</defs>
</svg>
