<svg width="1920" height="514" viewBox="0 0 1920 514" fill="none" xmlns="http://www.w3.org/2000/svg">
<g clip-path="url(#clip0_1379_2612)">
<rect x="1100" y="-20.8774" width="495.028" height="204" transform="rotate(-15 1100 -20.8774)" fill="white" fill-opacity="0.08"/>
<path d="M1431.61 150.916C1445.25 147.075 1462.85 145.272 1484.4 145.503C1505.95 145.735 1530.77 147.994 1558.84 152.283C1586.91 156.571 1616.45 162.869 1647.45 171.175C1678.45 179.482 1707.18 188.796 1733.63 199.119C1760.09 209.442 1782.71 219.893 1801.49 230.469C1820.28 241.046 1834.61 251.406 1844.5 261.55C1854.4 271.695 1858.28 280.744 1856.15 288.694C1856.1 288.855 1856.06 289.016 1856.01 289.175L1856.01 289.177L1849.27 314.346C1849.24 314.489 1849.2 314.632 1849.16 314.774C1849.12 314.916 1849.08 315.057 1849.04 315.198L1849.03 315.257L1849.02 315.256C1846.71 322.963 1838.87 328.697 1825.51 332.459C1811.87 336.299 1794.27 338.104 1772.72 337.873C1751.16 337.641 1726.35 335.381 1698.28 331.092C1670.2 326.804 1640.67 320.506 1609.67 312.2C1578.67 303.893 1549.94 294.579 1523.48 284.256C1520.4 283.054 1517.37 281.849 1514.39 280.643L1611.36 448.599C1616.16 456.907 1617.31 465.727 1614.81 475.058C1612.31 484.39 1606.9 491.454 1598.59 496.25L1270.31 685.784C1262.01 690.58 1253.19 691.727 1243.85 689.227C1234.52 686.727 1227.46 681.323 1222.66 673.015L1118.01 491.756C1113.22 483.449 1112.07 474.629 1114.57 465.297C1117.07 455.966 1122.47 448.901 1130.78 444.105L1458.84 254.697C1457.76 254.1 1456.68 253.505 1455.62 252.908C1436.84 242.331 1422.5 231.97 1412.61 221.825C1402.92 211.886 1399 203.001 1400.85 195.168L1400.84 195.165L1407.82 169.084L1407.83 169.087C1407.87 168.925 1407.91 168.763 1407.96 168.602C1410.09 160.652 1417.97 154.756 1431.61 150.916Z" fill="white" fill-opacity="0.08"/>
<path d="M660.947 131.106C671.336 138.486 680.233 147.491 687.638 158.124C695.042 168.756 700.409 180.284 703.738 192.709C711.711 222.464 708.135 250.32 693.012 276.276C677.888 302.231 655.612 319.151 626.185 327.037L484.931 364.886C475.136 367.511 465.548 368.891 456.17 369.031C472.024 378.957 485.905 389.5 497.812 400.66C515.065 416.831 527.615 433.774 535.461 451.488C543.306 469.201 545.01 486.338 540.573 502.898C539.963 505.176 539.246 507.406 538.423 509.587L531.449 535.613C531.071 537.92 530.576 540.216 529.964 542.501C525.526 559.062 515.481 573.053 499.83 584.47C484.179 595.887 464.839 604.285 441.812 609.663C418.785 615.04 392.815 617.225 363.904 616.214C334.993 615.204 305.059 610.55 274.103 602.255C243.146 593.961 214.897 583.023 189.354 569.443C163.812 555.862 142.414 540.987 125.16 524.816C107.907 508.645 95.3575 491.702 87.5117 473.989C79.666 456.275 77.961 439.137 82.3984 422.577C82.4727 422.299 82.5495 422.023 82.627 421.748L92.7598 383.929C92.8404 383.611 92.9226 383.292 93.0078 382.974C97.4453 366.414 107.49 352.424 123.141 341.006C138.792 329.589 158.133 321.191 181.16 315.813C204.187 310.435 230.157 308.251 259.067 309.261C287.978 310.272 317.912 314.925 348.868 323.219C356.85 325.358 364.652 327.674 372.273 330.164C362.268 318.181 355.043 303.905 350.603 287.333C347.273 274.908 346.157 262.24 347.254 249.33C348.351 236.42 351.552 224.171 356.858 212.586L391.439 137.611L593.512 83.4653L660.947 131.106ZM572.698 46.9878L391.226 95.6128L330.962 27.6519L590.908 -42.0005L572.698 46.9878Z" fill="white" fill-opacity="0.08"/>
</g>
<defs>
<clipPath id="clip0_1379_2612">
<rect width="1920" height="514" fill="white"/>
</clipPath>
</defs>
</svg>
