<svg width="20" height="20" viewBox="0 0 20 20" fill="none" xmlns="http://www.w3.org/2000/svg">
<mask id="mask0_1263_6677" style="mask-type:alpha" maskUnits="userSpaceOnUse" x="0" y="0" width="20" height="20">
<rect width="20" height="20" fill="#D9D9D9"/>
</mask>
<g mask="url(#mask0_1263_6677)">
<path d="M5 14.5807V15.4141C5 15.6502 4.92014 15.8481 4.76042 16.0078C4.60069 16.1675 4.40278 16.2474 4.16667 16.2474H3.33333C3.09722 16.2474 2.89931 16.1675 2.73958 16.0078C2.57986 15.8481 2.5 15.6502 2.5 15.4141V8.7474L4.25 3.7474C4.33333 3.4974 4.48264 3.29601 4.69792 3.14323C4.91319 2.99045 5.15278 2.91406 5.41667 2.91406H14.5833C14.8472 2.91406 15.0868 2.99045 15.3021 3.14323C15.5174 3.29601 15.6667 3.4974 15.75 3.7474L17.5 8.7474V15.4141C17.5 15.6502 17.4201 15.8481 17.2604 16.0078C17.1007 16.1675 16.9028 16.2474 16.6667 16.2474H15.8333C15.5972 16.2474 15.3993 16.1675 15.2396 16.0078C15.0799 15.8481 15 15.6502 15 15.4141V14.5807H5ZM4.83333 7.08073H15.1667L14.2917 4.58073H5.70833L4.83333 7.08073ZM6.25 12.0807C6.59722 12.0807 6.89236 11.9592 7.13542 11.7161C7.37847 11.4731 7.5 11.178 7.5 10.8307C7.5 10.4835 7.37847 10.1884 7.13542 9.94531C6.89236 9.70226 6.59722 9.58073 6.25 9.58073C5.90278 9.58073 5.60764 9.70226 5.36458 9.94531C5.12153 10.1884 5 10.4835 5 10.8307C5 11.178 5.12153 11.4731 5.36458 11.7161C5.60764 11.9592 5.90278 12.0807 6.25 12.0807ZM13.75 12.0807C14.0972 12.0807 14.3924 11.9592 14.6354 11.7161C14.8785 11.4731 15 11.178 15 10.8307C15 10.4835 14.8785 10.1884 14.6354 9.94531C14.3924 9.70226 14.0972 9.58073 13.75 9.58073C13.4028 9.58073 13.1076 9.70226 12.8646 9.94531C12.6215 10.1884 12.5 10.4835 12.5 10.8307C12.5 11.178 12.6215 11.4731 12.8646 11.7161C13.1076 11.9592 13.4028 12.0807 13.75 12.0807Z" fill="white"/>
</g>
</svg>
