<svg width="1000" height="1000" viewBox="0 0 1000 1000" fill="none" xmlns="http://www.w3.org/2000/svg">
<rect width="1000" height="1000" fill="url(#paint0_linear_1944_1630)"/>
<path d="M327.765 118.995C312.969 133.791 303.832 154.892 301.658 180.057C299.484 205.223 303.915 234.496 314.695 266.2C325.474 297.904 342.394 331.421 364.485 364.837C385.196 396.164 413.765 429.783 441.546 458.246L539.668 556.368L443.634 652.402L347.851 556.551C317.81 526.511 290.978 493.851 268.886 460.436C246.795 427.02 229.876 393.503 219.096 361.799C208.317 330.095 203.885 300.822 206.059 275.656C208.165 251.277 215.677 231.799 229.643 217.117L327.765 118.995Z" fill="#B6C2FF"/>
<path d="M231.732 215.031C246.528 200.235 267.629 191.098 292.795 188.924C317.96 186.75 347.234 191.181 378.938 201.961C410.641 212.74 444.159 229.659 477.574 251.751C508.902 272.461 542.521 301.031 570.984 328.812L669.105 426.934L765.139 330.9L669.289 235.116C639.248 205.076 606.589 178.243 573.173 156.152C539.758 134.06 506.24 117.141 474.537 106.362C442.832 95.5822 413.559 91.151 388.394 93.3248C364.015 95.4307 344.536 102.943 329.854 116.909L231.732 215.031Z" fill="white"/>
<path d="M672.238 881.004C687.034 866.208 696.171 845.107 698.345 819.941C700.519 794.775 696.087 765.502 685.308 733.798C674.529 702.094 657.609 668.577 635.518 635.162C614.807 603.834 586.238 570.215 558.457 541.752L460.335 443.63L556.369 347.596L652.152 443.447C682.193 473.487 709.025 506.147 731.117 539.563C753.208 572.978 770.127 606.495 780.907 638.199C791.686 669.903 796.118 699.176 793.944 724.342C791.838 748.721 784.326 768.2 770.36 782.882L672.238 881.004Z" fill="#B6C2FF"/>
<path d="M768.271 784.971C753.475 799.767 732.374 808.904 707.208 811.078C682.043 813.251 652.769 808.82 621.065 798.041C589.362 787.261 555.844 770.342 522.429 748.251C491.102 727.54 457.482 698.971 429.019 671.19L330.898 573.068L234.864 669.102L330.714 764.885C360.755 794.925 393.414 821.758 426.83 843.85C460.245 865.941 493.763 882.86 525.466 893.64C557.171 904.419 586.444 908.85 611.609 906.677C635.988 904.571 655.467 897.058 670.149 883.092L768.271 784.971Z" fill="white"/>
<defs>
<linearGradient id="paint0_linear_1944_1630" x1="500" y1="0" x2="500" y2="1000" gradientUnits="userSpaceOnUse">
<stop stop-color="#2D51FF"/>
<stop offset="1" stop-color="#6F88FF"/>
</linearGradient>
</defs>
</svg>
